<?xml version="1.0" encoding="utf-8"?>
<!-- Generator: Adobe Illustrator 25.2.1, SVG Export Plug-In . SVG Version: 6.00 Build 0)  -->
<svg version="1.1" id="Camada_1" xmlns="http://www.w3.org/2000/svg" xmlns:xlink="http://www.w3.org/1999/xlink" x="0px" y="0px"
	 viewBox="0 0 595.28 586.72" style="enable-background:new 0 0 595.28 586.72;" xml:space="preserve">
<style type="text/css">
	.st0{fill:#1E1E1C;}
	.st1{fill:#E3211D;}
	.st2{fill:#FFFFFF;}
</style>
<g>
	<path class="st0" d="M589.84,295.87c0,117.15-69.12,218.16-168.82,264.43c-37.26,17.3-78.79,26.98-122.58,26.98
		c-41.29,0-80.58-8.59-116.17-24.1C79.13,518.32,7.04,415.5,7.04,295.87C7.04,134.93,137.5,4.44,298.44,4.44
		C459.38,4.44,589.84,134.93,589.84,295.87z"/>
	<path class="st1" d="M462.26,368.37c0,0-17.62,15.65-31.32,40.12s-55.79,58.72-88.58,78.3c-32.79,19.58-35.72,19.09-40.12,24.47
		c-2.65,3.23-3.44,6.12-3.64,7.91c0,0-0.98-4.33-3.98-7.99c-4.4-5.39-7.35-4.9-40.13-24.47c-32.77-19.58-74.86-53.83-88.56-78.3
		c-13.7-24.47-31.32-40.13-31.32-40.13s-15.17-27.4-13.7-58.72c1.47-31.31,16.63-46.49,16.63-46.49s14.19-33.28,18.6-50.89
		c4.4-17.62,10.28-24.95,9.79-46c-0.49-21.04-0.98-44.53,1.95-55.3s10.28-28.86,21.05-36.7c10.77-7.83,29.35,14.68,29.35,14.68
		s26.92,26.42,38.18,32.3c11.26,5.86,27.89,14.19,42.08,15.65v0.07c14.16-1.52,30.68-9.79,41.87-15.64
		c11.26-5.86,38.17-32.29,38.17-32.29s18.6-22.51,29.37-14.69c10.77,7.83,18.1,25.95,21.04,36.7c2.93,10.77,2.44,34.26,1.95,55.3
		s5.38,28.39,9.79,46c4.4,17.62,18.59,50.9,18.59,50.9s15.18,15.17,16.65,46.49C477.42,340.96,462.26,368.37,462.26,368.37z"/>
	<path class="st2" d="M417.83,561.77c-37.47,16.85-79.11,26.03-122.9,25.5c-41.29-0.5-80.47-9.56-115.87-25.5L209,428.26
		c12.91-16.81,52.2-31.18,52.2-31.18s-27.53-4.87-34.12-36.47c-6.59-31.6-17.16-59.29,1.28-106.05
		c18.26-46.24,70.62-91.19,71.71-92.12c0,0,0.02-0.02,0.02,0c1.05,0.94,52.3,47.15,69.44,93.83c17.3,47.19,6.07,74.62-1.28,106.05
		c-7.35,31.43-34.97,35.64-34.97,35.64s38.9,15.32,51.43,32.43L417.83,561.77z"/>
</g>
</svg>
