<svg xmlns="http://www.w3.org/2000/svg" viewBox="0 0 204.1 204.1"><defs><style>.cls-1{fill:#fff;}.cls-2{fill:#a8692c;stroke:#73311b;stroke-miterlimit:10;}.cls-2,.cls-3{stroke-width:4px;}.cls-3{fill:none;stroke:#c48e45;stroke-linecap:square;stroke-linejoin:bevel;}</style></defs><g id="Camada_2" data-name="Camada 2"><g id="Camada_1-2" data-name="Camada 1"><rect class="cls-1" width="204.1" height="204.1"/><path class="cls-2" d="M186.56,36.37H156.72c.29-5.72,0-9.58-.7-10.55H47.4c-.69,1-1,4.83-.69,10.55H16.86c-3.58,52.84,44.59,60,44.59,60h0c7.29,15.45,17.71,28.84,32.18,34.35l-.46.07s-2.87,25.91-8.79,33.76-12.25,10.32-12.25,10.32a21.1,21.1,0,0,1-3.62,1.1c-1.47.23-1.1,2-1.1,2H136s.36-1.74-1.11-2a21.42,21.42,0,0,1-3.62-1.1s-6.33-2.48-12.25-10.32-8.79-33.76-8.79-33.76l-.46-.07c14.48-5.51,24.89-18.9,32.18-34.35h0S190.14,89.21,186.56,36.37ZM31.45,51h16.8a186,186,0,0,0,6.81,29A43.24,43.24,0,0,1,31.45,51ZM148.36,80a186.11,186.11,0,0,0,6.82-29H172S168.71,70,148.36,80Z"/><path class="cls-3" d="M73.77,100.38c5,10.61,12.15,19.8,22.08,23.58"/></g></g></svg>