<?xml version="1.0" encoding="utf-8"?>
<!-- Generator: Adobe Illustrator 25.2.1, SVG Export Plug-In . SVG Version: 6.00 Build 0)  -->
<svg version="1.1" id="Camada_1" xmlns="http://www.w3.org/2000/svg" xmlns:xlink="http://www.w3.org/1999/xlink" x="0px" y="0px"
	 viewBox="0 0 250 250" style="enable-background:new 0 0 250 250;" xml:space="preserve">
<style type="text/css">
	.st0{display:none;fill:none;stroke:#000000;stroke-width:5;stroke-miterlimit:10;}
	.st1{fill:none;stroke:#000000;stroke-width:4;stroke-miterlimit:10;}
</style>
<g>
	<circle class="st0" cx="125" cy="125" r="120"/>
	<g>
		<path class="st1" d="M49.8,107.3h150.5l0,0v80.8c0,8-6.6,14.6-14.6,14.6l0,0H64.4c-8,0-14.6-6.6-14.6-14.6l0,0L49.8,107.3
			L49.8,107.3z"/>
		<line class="st1" x1="112.7" y1="115.5" x2="112.7" y2="138"/>
		<line class="st1" x1="136.2" y1="112.8" x2="136.2" y2="138"/>
		<line class="st1" x1="144.4" y1="135.9" x2="144.4" y2="171.3"/>
		<line class="st1" x1="170.4" y1="135.9" x2="170.4" y2="171.3"/>
		<line class="st1" x1="112.7" y1="169.2" x2="112.7" y2="188.8"/>
		<line class="st1" x1="136.2" y1="169.2" x2="136.2" y2="192.9"/>
		<line class="st1" x1="110.2" y1="163.6" x2="138.7" y2="163.6"/>
		<line class="st1" x1="110.2" y1="143.6" x2="138.7" y2="143.6"/>
		<line class="st1" x1="67.3" y1="118.7" x2="67.3" y2="138"/>
		<line class="st1" x1="78.2" y1="135.9" x2="78.2" y2="171.3"/>
		<line class="st1" x1="104.2" y1="135.9" x2="104.2" y2="171.3"/>
		<line class="st1" x1="67.3" y1="169.2" x2="67.3" y2="194.2"/>
		<line class="st1" x1="54.7" y1="163.6" x2="71.9" y2="163.6"/>
		<line class="st1" x1="60.6" y1="143.6" x2="71.9" y2="143.6"/>
		<line class="st1" x1="180.8" y1="118.8" x2="180.8" y2="138"/>
		<line class="st1" x1="180.8" y1="169.2" x2="180.8" y2="183.9"/>
		<line class="st1" x1="175.6" y1="163.6" x2="186.5" y2="163.6"/>
		<line class="st1" x1="175.6" y1="143.6" x2="195.3" y2="143.6"/>
		<line class="st1" x1="77.2" y1="176.7" x2="105.7" y2="176.7"/>
		<line class="st1" x1="77.2" y1="129.9" x2="105.7" y2="129.9"/>
		<rect x="43.9" y="92.4" class="st1" width="162.1" height="14.9"/>
		<rect x="117.6" y="37.8" class="st1" width="14.9" height="54.7"/>
		<line class="st1" x1="143.1" y1="176.5" x2="171.7" y2="176.5"/>
		<line class="st1" x1="143.1" y1="129.8" x2="171.7" y2="129.8"/>
	</g>
</g>
</svg>
