<?xml version="1.0" encoding="utf-8"?>
<!-- Generator: Adobe Illustrator 25.2.1, SVG Export Plug-In . SVG Version: 6.00 Build 0)  -->
<svg version="1.1" id="Camada_1" xmlns="http://www.w3.org/2000/svg" xmlns:xlink="http://www.w3.org/1999/xlink" x="0px" y="0px"
	 viewBox="0 0 204.1 204.1" style="enable-background:new 0 0 204.1 204.1;" xml:space="preserve">
<style type="text/css">
	.st0{fill:#FFFFFF;}
	.st1{fill:#FFFFFF;stroke:#000000;stroke-width:4;stroke-miterlimit:10;}
</style>
<g>
	<rect class="st0" width="204.1" height="204.1"/>
	<g id="Camada_2_1_">
		<g id="Camada_1-2">
			<g id="_Repetição_radial_">
				<path class="st1" d="M116,133.1c0,0,18.5,15.7,15.3,31.4c-3.2,15.8-23.6,22.5-23.6,22.5s-20.9-5-25.4-20.4s12.5-32.6,12.5-32.6"
					/>
			</g>
			<g id="_Repetição_radial_2">
				<path class="st1" d="M82.4,125.8c0,0-9.2,22.4-25.2,24.3s-28.7-15.5-28.7-15.5s-1.7-21.4,11.6-30.5s34.9,1.8,34.9,1.8"/>
			</g>
			<g id="_Repetição_radial_3">
				<path class="st1" d="M79,91.5c0,0-24.2-1.8-30.9-16.4S54,43,54,43s19.8-8.2,32.6,1.6s9,33.8,9,33.8"/>
			</g>
			<g id="_Repetição_radial_4">
				<path class="st1" d="M110.5,77.7c0,0-5.7-23.5,6.1-34.4s32.3-4.4,32.3-4.4s14,16.3,8.5,31.4s-29.3,19-29.3,19"/>
			</g>
			<g id="_Repetição_radial_5">
				<path class="st1" d="M133.4,103.4c0,0,20.6-12.7,34.6-4.8c14,7.9,14.1,29.4,14.1,29.4c0,0-11.2,18.3-27.3,17.9s-27.2-22-27.2-22
					"/>
			</g>
			<g id="_Repetição_radial_6">
				<path class="st1" d="M116,152.8c0,0,11.3,20,25.1,21.8c12.6,1.6,20.2,0,21.4-0.3c0.1,0,0.1,0,0.1-0.1c0.3-0.8,3.1-8.1,3.2-21.3
					c0.1-13.9-18.2-27.8-18.2-27.8L120.3,113l-7.7,6.5L116,152.8z"/>
			</g>
			<g id="_Repetição_radial_7">
				<path class="st1" d="M63.6,131.9c0,0-15.6,16.9-13,30.6c2.4,12.5,6.2,19.2,6.9,20.3c0.1,0.1,0,0.1,0.1,0.1
					c0.8,0.1,8.7,0.5,21.2-3.5c13.3-4.2,20.8-25.9,20.8-25.9l3.3-29.7l-8.5-5.4L63.6,131.9z"/>
			</g>
			<g id="_Repetição_radial_8">
				<path class="st1" d="M67.4,75.6c0,0-20.9-9.6-33.1-2.9C23.2,78.8,18,84.5,17.2,85.4c-0.1,0.1,0,0.1,0,0.1
					c0.2,0.8,2.2,8.4,9.9,19.1c8.1,11.3,31.1,11.8,31.1,11.8l29.3-6l2.5-9.8L67.4,75.6z"/>
			</g>
			<g id="_Repetição_radial_9">
				<path class="st1" d="M122.1,61.7c0,0,2.7-22.8-7.4-32.4c-9.2-8.7-16.3-11.9-17.5-12.4c-0.1,0-0.1,0-0.1,0
					c-0.7,0.4-7.3,4.7-15.1,15.3c-8.3,11.2-1.6,33.2-1.6,33.2l14.8,26l10.1-0.7L122.1,61.7z"/>
			</g>
			<g id="_Repetição_radial_10">
				<path class="st1" d="M152.2,109.5c0,0,22.5-4.5,28.5-17.1c5.4-11.5,6.2-19.2,6.4-20.4c0-0.1,0-0.1,0-0.1
					c-0.6-0.5-6.7-5.4-19.2-9.6c-13.2-4.4-32.1,8.7-32.1,8.7l-20.1,22.1l3.8,9.4L152.2,109.5z"/>
			</g>
			<path class="st1" d="M96.6,118c-1.3,2.5-9.2,8.5-7.5,18.8c1.5,9.4,14,14.7,16.2,15.5c0.2,0.1,0.3,0,0.5-0.1
				c2.2-1,14.4-7,15.3-16.4c1.1-10.3-7.2-15.9-8.6-18.3"/>
			<path class="st1" d="M90.7,102.7c-2.8-0.4-11-6.1-20.2-1.4c-8.4,4.3-9.6,17.9-9.8,20.3c0,0.2,0,0.3,0.2,0.5
				c1.6,1.8,11.1,11.5,20.3,9.5c10.1-2.2,12.9-11.7,14.8-13.8"/>
			<path class="st1" d="M103.6,92.3c-0.4-2.8,2.4-12.3-4.9-19.6c-6.7-6.7-20-3.6-22.3-3c-0.2,0.1-0.3,0.1-0.4,0.3
				c-1.2,2.1-7.5,14.1-2.8,22.3c5.2,9,15.1,8.7,17.7,9.8"/>
			<path class="st1" d="M117.3,101.3c2.5-1.3,12.4-1.5,17.2-10.8c4.3-8.4-2.8-20.1-4-22.1c-0.1-0.2-0.2-0.2-0.4-0.3
				c-2.4-0.5-15.7-2.8-22,4.3c-6.9,7.7-3.6,17.1-3.9,19.9"/>
			<path class="st1" d="M113,117.2c2,2,5.3,11.4,15.5,13c9.3,1.5,18.3-8.8,19.8-10.6c0.1-0.2,0.1-0.3,0.1-0.5
				c-0.3-2.4-2.2-15.8-10.9-19.6c-9.5-4.2-17.4,1.8-20.1,2.5"/>
			<circle class="st1" cx="104.2" cy="106.3" r="14.3"/>
		</g>
	</g>
</g>
</svg>
