<?xml version="1.0" encoding="utf-8"?>
<!-- Generator: Adobe Illustrator 25.2.1, SVG Export Plug-In . SVG Version: 6.00 Build 0)  -->
<svg version="1.1" id="Camada_1" xmlns="http://www.w3.org/2000/svg" xmlns:xlink="http://www.w3.org/1999/xlink" x="0px" y="0px"
	 viewBox="0 0 204.1 204.1" style="enable-background:new 0 0 204.1 204.1;" xml:space="preserve">
<style type="text/css">
	.st0{fill:#FFFFFF;}
	.st1{fill:#FFFFFF;stroke:#000000;stroke-width:4;stroke-miterlimit:10;}
	.st2{fill:none;stroke:#000000;stroke-width:4;stroke-miterlimit:10;}
</style>
<rect y="0" class="st0" width="204.1" height="204.1"/>
<g id="Camada_2_1_">
	<g id="Camada_1-2">
		<path class="st1" d="M104.8,67.7c0,0,1.1-0.9,1.3-1.1c1.5-1.3,8.1-6.6,22.5-8.1c16.5-1.6,35.5,3.3,43,20
			c7.5,16.6,7.4,48.5-6.2,71.6c-13.5,23.1-25.7,34.3-36.4,36.4c-10.7,2.1-17.6-3.3-24.3-3.3s-11.2,3.6-19.3,3.3
			c-8.1-0.3-23.1-0.3-46.2-38.6s-5.5-71.8-5.5-71.8s18.3-27.9,63.8-8.7c0.3,0.1,0.6,0.3,0.9,0.3C102.7,70.2,104.8,67.7,104.8,67.7z"
			/>
		<path class="st2" d="M101.7,76.8c0,0-5.7-46.5,48-58.7"/>
		<path class="st1" d="M99.2,55.3C61.7,64.5,50.8,17,50.8,17s48.9-0.4,48.6,38C99.3,55.3,99.4,55.2,99.2,55.3z"/>
		<path class="st1" d="M96.9,79.1c0,0,9.1,4,11.7-3.9"/>
	</g>
</g>
</svg>
