<?xml version="1.0" encoding="utf-8"?>
<!-- Generator: Adobe Illustrator 25.2.1, SVG Export Plug-In . SVG Version: 6.00 Build 0)  -->
<svg version="1.1" id="Camada_1" xmlns="http://www.w3.org/2000/svg" xmlns:xlink="http://www.w3.org/1999/xlink" x="0px" y="0px"
	 viewBox="0 0 204.1 204.1" style="enable-background:new 0 0 204.1 204.1;" xml:space="preserve">
<style type="text/css">
	.st0{fill:#FFFFFF;}
	.st1{fill:#FFFFFF;stroke:#000000;stroke-width:4;stroke-miterlimit:10;}
	.st2{fill:none;stroke:#000000;stroke-width:4;stroke-miterlimit:10;}
</style>
<rect y="0" class="st0" width="204.1" height="204.1"/>
<g>
	<path class="st1" d="M-52.8-375.3h63c8.6,0,15.6,7,15.6,15.6v87c0,8.6-7,15.6-15.6,15.6h-63c-8.6,0-15.6-7-15.6-15.6v-87
		C-68.4-368.4-61.4-375.3-52.8-375.3z"/>
	<path class="st1" d="M-44.9-421.9H2.2c5.1,0,9.3,4.2,9.3,9.4l0,0v37.2l0,0h-65.6l0,0v-37.3C-54.1-417.8-50.1-421.9-44.9-421.9
		L-44.9-421.9z"/>
	<path class="st1" d="M-7.8-388.1h-27c-3.4,0-6.1-2.7-6.1-6.1v-27.5l0,0h39.1l0,0v27.5C-1.7-390.8-4.5-388.1-7.8-388.1L-7.8-388.1z"
		/>
	<circle class="st1" cx="-21.2" cy="-404.7" r="4"/>
	<path class="st1" d="M25.9-350.3v52.8c-0.5,0.1-0.9,0.2-1.4,0.1H-67c-0.5,0-0.9,0-1.4-0.2v-52.7c0.5-0.1,0.9-0.2,1.4-0.2h91.3
		C24.9-350.5,25.4-350.4,25.9-350.3z"/>
	<line class="st2" x1="-11.1" y1="-408.2" x2="27.2" y2="-427.3"/>
	<line class="st2" x1="-11.1" y1="-400.3" x2="27.2" y2="-381.4"/>
	<line class="st2" x1="-10.6" y1="-404.2" x2="27.3" y2="-404.2"/>
</g>
<image style="overflow:visible;" width="512" height="512" xlink:href="CB65139C.jpg"  transform="matrix(1 0 0 1 -1136.5426 -569.0172)">
</image>
<g>
	<path class="st1" d="M92.9,31.6c0,0-16.9,2.7-28.3,2.3s-27.1-7.8-27.1-7.8s-12.2,49.3,29.9,78.8c0,0,8.5-25.8,38-39.5"/>
	<path class="st1" d="M124.1,56.2c0,0,4.7-1.1,7.7-0.7c1.5,0.2-5-18.3-5-18.3c-3.4-9.2-7.2-18.3-8.2-17.1c-2,2.3-6.3,4.5-6.3,4.5"/>
	<path class="st1" d="M161.9,186l-1.3,0.5c-5,1.8-10.6-0.7-12.4-5.7L92.5,30.5c-1.8-5,0.7-10.6,5.7-12.4l1.3-0.5
		c5-1.8,10.6,0.7,12.4,5.7l55.8,150.3C169.5,178.6,166.9,184.2,161.9,186z"/>
</g>
</svg>
