<?xml version="1.0" encoding="utf-8"?>
<!-- Generator: Adobe Illustrator 25.2.1, SVG Export Plug-In . SVG Version: 6.00 Build 0)  -->
<svg version="1.1" id="Camada_1" xmlns="http://www.w3.org/2000/svg" xmlns:xlink="http://www.w3.org/1999/xlink" x="0px" y="0px"
	 viewBox="0 0 250 250" style="enable-background:new 0 0 250 250;" xml:space="preserve">
<style type="text/css">
	.st0{display:none;fill:none;stroke:#000000;stroke-width:5;stroke-miterlimit:10;}
</style>
<g>
	<path d="M77.1,36.7l5.9,1.1l-4.4,23.1c13.2-8.9,28.7-13.6,44.5-13.6c1.4,0,2.7,0,4.1,0.1c20,1.1,38.8,9.3,52.9,23.2
		c12.3,11.8,20.3,27.3,22.8,44c2.7,14.9,0.6,30.2-6.1,43.9c-1.2,2.3-2.4,4.7-3.8,6.9c-6.5,10.4-15.4,19.1-25.9,25.3
		c-2.3,1.4-4.7,2.6-7.1,3.7c-10.4,4.8-21.7,7.2-33.2,7.2c-4.1,0-8.2-0.3-12.2-0.9c-38.4-6-67.2-37.7-68.8-75.6l6-0.2
		c1.5,35.2,28.1,64.5,63.7,70.1c3.7,0.6,7.5,0.8,11.2,0.8c10.5,0,21-2.2,30.6-6.6c2.3-1,4.4-2.2,6.6-3.4c9.8-5.8,18-13.8,24-23.3
		c1.3-2.1,2.4-4.2,3.5-6.4c6.1-12.7,8.1-27,5.9-40.9c-2.4-15.5-9.9-29.7-21.2-40.7c-14.5-14.2-33.9-21.4-53.1-21.4
		c-15,0-29.8,4.4-42.2,13.3l26.2,2.9l-0.7,5.9l-35.8-4L77.1,36.7 M73.9,32l-0.7,3.9l-6.7,34.6l-0.8,4.2l4.3,0.5l35.8,4l4,0.4l0.5-4
		l0.7-5.9l0.5-4l-4-0.4L93,63.9c9.2-4.4,19.3-6.7,29.9-6.7c18.8,0,37.1,7.4,50.3,20.3c10.7,10.3,17.8,23.9,20.1,38.5
		c2.1,13.2,0.2,26.5-5.5,38.5c-1.1,2.2-2.2,4.2-3.3,6c-5.6,8.9-13.4,16.5-22.6,21.9c-2.4,1.4-4.3,2.4-6.1,3.2l0,0l0,0
		c-9.1,4.2-18.9,6.3-29,6.3c-3.5,0-7.1-0.3-10.6-0.8c-33.6-5.3-58.9-33.1-60.3-66.3l-0.2-4l-4,0.1l-6,0.2l-4,0.1l0.2,4
		c1.6,39.8,32,73.2,72.2,79.4c4.2,0.6,8.5,0.9,12.8,0.9c12,0,24.1-2.6,34.8-7.6c2.6-1.1,5.2-2.5,7.6-3.9c11-6.5,20.5-15.8,27.2-26.6
		c1.4-2.2,2.7-4.7,4-7.3c7.1-14.6,9.3-30.6,6.4-46.4c-2.7-17.8-11-33.8-24-46.2c-14.8-14.5-34.5-23.2-55.5-24.3
		c-1.4-0.1-2.9-0.1-4.3-0.1c-13.7,0-27,3.3-38.9,9.6l2.7-14.3l0.8-4l-4-0.7l-5.9-1.1L73.9,32L73.9,32z"/>
</g>
<circle class="st0" cx="125" cy="125" r="120"/>
</svg>
