<?xml version="1.0" encoding="utf-8"?>
<!-- Generator: Adobe Illustrator 25.2.1, SVG Export Plug-In . SVG Version: 6.00 Build 0)  -->
<svg version="1.1" id="Camada_1" xmlns="http://www.w3.org/2000/svg" xmlns:xlink="http://www.w3.org/1999/xlink" x="0px" y="0px"
	 viewBox="0 0 250 250" style="enable-background:new 0 0 250 250;" xml:space="preserve">
<style type="text/css">
	.st0{display:none;fill:none;stroke:#000000;stroke-width:5;stroke-miterlimit:10;}
</style>
<circle class="st0" cx="125" cy="125" r="120"/>
<g>
	<path d="M123.1,41.8c4.1,0,8.3,0.3,12.3,0.9c38.6,6,67.7,38,69.3,76.2l-6,0.2c-1.5-35.5-28.3-65-64.2-70.6
		c-3.8-0.6-7.5-0.9-11.3-0.9c-10.6,0-21.1,2.2-30.9,6.7c-2.3,1-4.4,2.2-6.6,3.5c-9.9,5.8-18.1,13.9-24.2,23.5
		c-1.3,2.1-2.5,4.2-3.5,6.4c-6.1,12.8-8.2,27.2-5.9,41.2c2.5,15.6,10,30,21.4,41c14.6,14.3,34.1,21.6,53.5,21.6
		c15.1,0,30-4.4,42.6-13.4l-26.4-3l0.7-5.9l36.1,4l-6.7,34.9l-5.9-1.1l4.4-23.3c-13.3,9-28.9,13.7-44.9,13.7c-1.4,0-2.7,0-4.1-0.1
		c-20.1-1.1-39.1-9.4-53.3-23.4c-12.4-11.9-20.4-27.5-23-44.4c-2.8-15-0.6-30.5,6.1-44.3c1.2-2.4,2.5-4.7,3.8-7
		c6.5-10.2,15.5-19,26.1-25.3c2.3-1.4,4.7-2.7,7.2-3.7C100.2,44.3,111.6,41.8,123.1,41.8 M123.1,37.8c-12.1,0-24.2,2.6-35.1,7.6
		c-2.6,1.1-5.2,2.5-7.6,4C69.3,56.1,59.8,65.3,53,76.3c-1.4,2.2-2.7,4.7-4,7.3c-7.2,14.7-9.4,30.9-6.5,46.7
		c2.7,17.9,11.1,34,24.1,46.6c14.9,14.7,34.7,23.3,55.9,24.5c1.4,0.1,2.9,0.1,4.3,0.1c13.8,0,27.2-3.3,39.3-9.7l-2.8,14.5l-0.8,4
		l4,0.7l5.9,1.1l3.9,0.7l0.7-3.9l6.7-34.9l0.8-4.2l-4.3-0.5l-36.1-4l-4-0.4l-0.5,4l-0.7,5.9l-0.5,4l4,0.4l14.6,1.6
		c-9.2,4.4-19.5,6.8-30.3,6.8c-18.9,0-37.4-7.5-50.7-20.4c-10.7-10.4-17.9-24.1-20.2-38.8c-2.1-13.3-0.2-26.7,5.6-38.8
		c1.1-2.2,2.2-4.2,3.4-6.1c5.7-9,13.6-16.7,22.8-22.1c2.4-1.4,4.3-2.4,6.2-3.2l0,0l0,0c9.2-4.2,19-6.3,29.2-6.3
		c3.6,0,7.2,0.3,10.7,0.8c33.8,5.3,59.4,33.4,60.8,66.8l0.2,4l4-0.1l6-0.2l4-0.1l-0.2-4c-1.7-40.1-32.2-73.7-72.7-80
		C131.8,38.2,127.5,37.8,123.1,37.8L123.1,37.8z"/>
</g>
</svg>
