<?xml version="1.0" encoding="utf-8"?>
<!-- Generator: Adobe Illustrator 25.2.1, SVG Export Plug-In . SVG Version: 6.00 Build 0)  -->
<svg version="1.1" id="Camada_1" xmlns="http://www.w3.org/2000/svg" xmlns:xlink="http://www.w3.org/1999/xlink" x="0px" y="0px"
	 viewBox="0 0 250 250" style="enable-background:new 0 0 250 250;" xml:space="preserve">
<style type="text/css">
	.st0{fill:none;stroke:#000000;stroke-width:5;stroke-miterlimit:10;}
</style>
<g>
	<path class="st0" d="M245,125c0.1,24.2-7.2,47.8-21,67.8c-1,1.4-2,2.8-3,4.2c-1,1.3-2,2.6-3,3.9c-13.1,16.3-30.4,28.8-50.1,36.2
		c-1.1,0.4-2.1,0.8-3.2,1.2c-0.9,0.3-1.8,0.7-2.8,0.9c-1.9,0.6-3.9,1.2-5.8,1.7c-1,0.3-2,0.5-3,0.8c-1,0.2-2,0.5-3,0.7
		c-16.5,3.5-33.7,3.6-50.2,0c-1-0.2-2-0.4-3-0.7c-1-0.2-2-0.5-3-0.8c-2-0.5-3.9-1.1-5.8-1.7c-0.9-0.3-1.9-0.6-2.8-0.9
		c-1.1-0.4-2.1-0.8-3.2-1.2c-21.2-8-39.7-22-53.1-40.1c-1-1.4-2-2.7-3-4.2c-13.8-20-21.1-43.7-21-67.8C5,58.8,58.7,5,125,5
		S245,58.8,245,125z"/>
	<g>
		<path d="M156.1,148.1v92.8c-1,0.3-2,0.5-3,0.8c-1,0.2-2,0.5-3,0.7v-88.5H99.9v88.5c-1-0.2-2-0.4-3-0.7c-1-0.2-2-0.5-3-0.8v-92.8
			H156.1z"/>
	</g>
	<g>
		<path d="M88.1,70.5v168.7l-2.8-0.9c-1.1-0.4-2.1-0.8-3.2-1.2V76.4H32v124.4l-3-3.8c-1-1.4-2-2.7-3-4.2V70.5H88.1z"/>
		<path d="M32,77.3"/>
	</g>
	<g>
		<path d="M224,105.6v87.2c-1,1.4-2,2.8-3,4.2c-1,1.3-2,2.6-3,3.9v-89.4h-50.1v125.7c-1.1,0.4-2.1,0.8-3.2,1.2
			c-0.9,0.3-1.8,0.7-2.8,0.9V105.6H224z"/>
	</g>
	<path class="st0" d="M245,125c0.1,24.2-7.2,47.8-21,67.8c-1,1.4-2,2.8-3,4.2c-1,1.3-2,2.6-3,3.9c-13.1,16.3-30.4,28.8-50.1,36.2
		c-1.1,0.4-2.1,0.8-3.2,1.2c-0.9,0.3-1.8,0.7-2.8,0.9c-1.9,0.6-3.9,1.2-5.8,1.7c-1,0.3-2,0.5-3,0.8c-1,0.2-2,0.5-3,0.7
		c-16.5,3.5-33.7,3.6-50.2,0c-1-0.2-2-0.4-3-0.7c-1-0.2-2-0.5-3-0.8c-2-0.5-3.9-1.1-5.8-1.7c-0.9-0.3-1.9-0.6-2.8-0.9
		c-1.1-0.4-2.1-0.8-3.2-1.2c-21.2-8-39.7-22-53.1-40.1c-1-1.4-2-2.7-3-4.2c-13.8-20-21.1-43.7-21-67.8C5,58.8,58.7,5,125,5
		S245,58.8,245,125z"/>
</g>
</svg>
