<?xml version="1.0" encoding="utf-8"?>
<!-- Generator: Adobe Illustrator 25.2.1, SVG Export Plug-In . SVG Version: 6.00 Build 0)  -->
<svg version="1.1" id="Camada_1" xmlns="http://www.w3.org/2000/svg" xmlns:xlink="http://www.w3.org/1999/xlink" x="0px" y="0px"
	 viewBox="0 0 250 250" style="enable-background:new 0 0 250 250;" xml:space="preserve">
<style type="text/css">
	.st0{fill:#FFFFFF;stroke:#000000;stroke-width:4;stroke-miterlimit:10;}
	.st1{fill:none;stroke:#000000;stroke-width:4;stroke-miterlimit:10;}
</style>
<path class="st0" d="M214.8,66.7h-31.6c0.3-6.1,0-10.1-0.7-11.2h-115c-0.7,1-1,5.1-0.7,11.2H35.2c-3.8,55.9,47.2,63.5,47.2,63.5l0,0
	c7.7,16.4,18.7,30.5,34.1,36.4l-0.5,0.1c0,0-3,27.4-9.3,35.7s-13,10.9-13,10.9s-2.3,0.9-3.8,1.2c-1.6,0.2-1.2,2.1-1.2,2.1h72.5
	c0,0,0.4-1.8-1.2-2.1c-1.6-0.2-3.8-1.2-3.8-1.2s-6.7-2.6-13-10.9c-6.3-8.3-9.3-35.7-9.3-35.7l-0.5-0.1c15.3-5.8,26.3-20,34.1-36.4
	l0,0C167.6,130.2,218.6,122.6,214.8,66.7z M50.6,82.1h17.8c1.4,9.2,3.7,20,7.2,30.7C54.1,102.3,50.6,82.1,50.6,82.1z M174.4,112.8
	c3.5-10.7,5.8-21.5,7.2-30.7h17.8C199.4,82.1,195.9,102.3,174.4,112.8z"/>
<polygon class="st1" points="125,75 133.3,91.8 151.8,94.5 138.4,107.5 141.5,125.9 125,117.2 108.5,125.9 111.6,107.5 98.2,94.5 
	116.7,91.8 "/>
</svg>
